<svg width="18" height="19" viewBox="0 0 18 19" fill="none" xmlns="http://www.w3.org/2000/svg">
<path d="M11.5 3.12506C11.5 2.63061 11.3534 2.14726 11.0787 1.73614C10.804 1.32501 10.4136 1.00458 9.95676 0.815363C9.49994 0.626144 8.99728 0.576636 8.51232 0.673099C8.02737 0.769562 7.58191 1.00766 7.23228 1.3573C6.88265 1.70693 6.64455 2.15238 6.54808 2.63734C6.45162 3.12229 6.50113 3.62496 6.69035 4.08177C6.87957 4.53859 7.2 4.92903 7.61112 5.20374C8.02225 5.47844 8.5056 5.62506 9.00005 5.62506C9.66309 5.62506 10.299 5.36167 10.7678 4.89283C11.2367 4.42399 11.5 3.7881 11.5 3.12506ZM9.00005 4.37506C8.75282 4.37506 8.51115 4.30175 8.30559 4.1644C8.10002 4.02705 7.93981 3.83182 7.8452 3.60342C7.75059 3.37501 7.72584 3.12368 7.77407 2.8812C7.8223 2.63872 7.94135 2.41599 8.11617 2.24118C8.29098 2.06636 8.51371 1.94731 8.75619 1.89908C8.99866 1.85085 9.25 1.8756 9.4784 1.97021C9.70681 2.06482 9.90203 2.22504 10.0394 2.4306C10.1767 2.63616 10.25 2.87784 10.25 3.12506C10.25 3.45658 10.1184 3.77453 9.88393 4.00895C9.64951 4.24337 9.33157 4.37506 9.00005 4.37506ZM17.086 6.85241C17.0148 6.50238 16.8237 6.18818 16.5455 5.96409C16.2674 5.74 15.9197 5.62009 15.5625 5.62506H2.43755C2.08136 5.62505 1.73586 5.74674 1.4583 5.96996C1.18073 6.19317 0.987766 6.50453 0.911367 6.85242C0.834969 7.20032 0.879726 7.56387 1.03822 7.88285C1.19672 8.20183 1.45944 8.45708 1.78286 8.60631H1.79302L5.75786 10.3524L4.11724 16.5805C3.94557 16.9587 3.93115 17.3895 4.07715 17.7783C4.22315 18.1671 4.51761 18.4819 4.89575 18.6536C5.27389 18.8252 5.70474 18.8397 6.09351 18.6937C6.48228 18.5477 6.79713 18.2532 6.9688 17.8751L9.00005 14.3696L11.0313 17.8751C11.2118 18.2371 11.5257 18.515 11.9069 18.6503C12.2881 18.7856 12.707 18.7678 13.0754 18.6007C13.4437 18.4335 13.7329 18.1299 13.882 17.7539C14.0312 17.3779 14.0287 16.9587 13.875 16.5844L12.2344 10.3563L16.1993 8.61022H16.2094C16.538 8.46598 16.8057 8.21112 16.9658 7.88996C17.126 7.5688 17.1685 7.20166 17.086 6.85241ZM15.6954 7.46959L11.2477 9.42741C11.1115 9.4874 11.0013 9.59401 10.9367 9.72805C10.8721 9.86209 10.8574 10.0148 10.8954 10.1587L12.6821 16.9532C12.6912 16.9896 12.704 17.0249 12.7204 17.0587C12.7466 17.1147 12.7556 17.1773 12.7462 17.2385C12.7368 17.2997 12.7094 17.3567 12.6676 17.4023C12.6257 17.4479 12.5713 17.4801 12.5111 17.4947C12.451 17.5093 12.3879 17.5057 12.3297 17.4844C12.252 17.4559 12.1888 17.3978 12.154 17.3227C12.146 17.3058 12.1372 17.2894 12.1274 17.2735L9.54067 12.8126C9.48573 12.7179 9.40687 12.6392 9.31199 12.5846C9.21711 12.5299 9.10954 12.5012 9.00005 12.5012C8.89055 12.5012 8.78298 12.5299 8.6881 12.5846C8.59322 12.6392 8.51436 12.7179 8.45942 12.8126L5.87505 17.2696C5.86527 17.2855 5.8564 17.3019 5.84849 17.3188C5.81362 17.3939 5.7504 17.452 5.67271 17.4805C5.61459 17.5018 5.55146 17.5054 5.49132 17.4908C5.43118 17.4761 5.37673 17.444 5.33489 17.3984C5.29304 17.3528 5.26569 17.2958 5.25629 17.2346C5.24688 17.1734 5.25586 17.1108 5.28208 17.0548C5.29842 17.021 5.31125 16.9857 5.32036 16.9493L7.10474 10.1563C7.14266 10.0124 7.12802 9.85975 7.06343 9.72571C6.99884 9.59166 6.88855 9.48506 6.75239 9.42506L2.30474 7.46959C2.24089 7.43913 2.18927 7.38791 2.15832 7.3243C2.12737 7.26069 2.11891 7.18846 2.13433 7.11943C2.14976 7.05039 2.18814 6.98863 2.24322 6.94424C2.2983 6.89985 2.36681 6.87546 2.43755 6.87506H15.5625C15.6335 6.87493 15.7024 6.89894 15.7578 6.94315C15.8133 6.98735 15.8521 7.04912 15.8678 7.11829C15.8836 7.18746 15.8753 7.25993 15.8444 7.32377C15.8134 7.38762 15.7617 7.43904 15.6977 7.46959H15.6954Z" fill="#38343D"/>
</svg>
