<svg width="16" height="16" viewBox="0 0 16 16" fill="none" xmlns="http://www.w3.org/2000/svg">
<path d="M6.75 14.8751C6.75 15.0409 6.68415 15.1999 6.56694 15.3171C6.44973 15.4343 6.29076 15.5001 6.125 15.5001H1.75C1.41848 15.5001 1.10054 15.3684 0.866116 15.134C0.631696 14.8996 0.5 14.5816 0.5 14.2501V1.75012C0.5 1.4186 0.631696 1.10066 0.866116 0.866239C1.10054 0.631818 1.41848 0.500122 1.75 0.500122H6.125C6.29076 0.500122 6.44973 0.56597 6.56694 0.68318C6.68415 0.800391 6.75 0.959362 6.75 1.12512C6.75 1.29088 6.68415 1.44985 6.56694 1.56706C6.44973 1.68427 6.29076 1.75012 6.125 1.75012H1.75V14.2501H6.125C6.29076 14.2501 6.44973 14.316 6.56694 14.4332C6.68415 14.5504 6.75 14.7094 6.75 14.8751ZM15.3172 7.55793L12.1922 4.43293C12.0749 4.31566 11.9159 4.24977 11.75 4.24977C11.5841 4.24977 11.4251 4.31566 11.3078 4.43293C11.1905 4.55021 11.1247 4.70927 11.1247 4.87512C11.1247 5.04097 11.1905 5.20003 11.3078 5.31731L13.3664 7.37512H6.125C5.95924 7.37512 5.80027 7.44097 5.68306 7.55818C5.56585 7.67539 5.5 7.83436 5.5 8.00012C5.5 8.16588 5.56585 8.32485 5.68306 8.44206C5.80027 8.55927 5.95924 8.62512 6.125 8.62512H13.3664L11.3078 10.6829C11.1905 10.8002 11.1247 10.9593 11.1247 11.1251C11.1247 11.291 11.1905 11.45 11.3078 11.5673C11.4251 11.6846 11.5841 11.7505 11.75 11.7505C11.9159 11.7505 12.0749 11.6846 12.1922 11.5673L15.3172 8.44231C15.3753 8.38426 15.4214 8.31533 15.4529 8.23946C15.4843 8.16359 15.5005 8.08226 15.5005 8.00012C15.5005 7.91799 15.4843 7.83666 15.4529 7.76078C15.4214 7.68491 15.3753 7.61598 15.3172 7.55793Z" fill="#AA2222"/>
</svg>
