<svg width="20" height="18" viewBox="0 0 20 18" fill="none" xmlns="http://www.w3.org/2000/svg">
<path d="M19.8172 9.44229L17.9422 11.3173C17.8841 11.3754 17.8152 11.4215 17.7393 11.453C17.6634 11.4844 17.5821 11.5006 17.5 11.5006C17.4178 11.5006 17.3365 11.4844 17.2606 11.453C17.1848 11.4215 17.1158 11.3754 17.0578 11.3173L15.1828 9.44229C15.0655 9.32502 14.9996 9.16596 14.9996 9.0001C14.9996 8.83425 15.0655 8.67519 15.1828 8.55792C15.3001 8.44064 15.4591 8.37476 15.625 8.37476C15.7908 8.37476 15.9499 8.44064 16.0672 8.55792L16.875 9.36651V9.0001C16.8757 7.54435 16.4143 6.12594 15.5573 4.9492C14.7002 3.77247 13.4918 2.89816 12.106 2.45222C10.7202 2.00628 9.22866 2.01174 7.84618 2.4678C6.46371 2.92386 5.26168 3.80698 4.41326 4.98995C4.3165 5.12463 4.1702 5.21535 4.00654 5.24216C3.84289 5.26898 3.67529 5.22968 3.54061 5.13292C3.40593 5.03615 3.3152 4.88985 3.28839 4.7262C3.26158 4.56254 3.30088 4.39494 3.39764 4.26026C4.40036 2.86223 5.82098 1.81857 7.45484 1.27965C9.08871 0.74072 10.8515 0.734339 12.4892 1.26142C14.1269 1.78851 15.555 2.82185 16.5679 4.21258C17.5807 5.60332 18.1259 7.27965 18.125 9.0001V9.36651L18.9328 8.55792C19.0501 8.44064 19.2091 8.37476 19.375 8.37476C19.5408 8.37476 19.6999 8.44064 19.8172 8.55792C19.9344 8.67519 20.0003 8.83425 20.0003 9.0001C20.0003 9.16596 19.9344 9.32502 19.8172 9.44229ZM16.6 13.7392C15.597 15.1361 14.1766 16.1788 12.5432 16.7171C10.9099 17.2554 9.14785 17.2616 7.51079 16.7347C5.87372 16.2079 4.44605 15.1751 3.43329 13.7852C2.42053 12.3953 1.87491 10.7199 1.87498 9.0001V8.6337L1.06717 9.44229C0.949893 9.55957 0.790834 9.62545 0.624981 9.62545C0.459129 9.62545 0.300069 9.55957 0.182794 9.44229C0.0655184 9.32502 -0.000366211 9.16596 -0.000366211 9.0001C-0.000366211 8.83425 0.0655184 8.67519 0.182794 8.55792L2.05779 6.68292C2.11584 6.62481 2.18477 6.57871 2.26064 6.54725C2.33652 6.5158 2.41785 6.49961 2.49998 6.49961C2.58212 6.49961 2.66345 6.5158 2.73932 6.54725C2.81519 6.57871 2.88412 6.62481 2.94217 6.68292L4.81717 8.55792C4.93444 8.67519 5.00033 8.83425 5.00033 9.0001C5.00033 9.16596 4.93444 9.32502 4.81717 9.44229C4.69989 9.55957 4.54083 9.62545 4.37498 9.62545C4.20913 9.62545 4.05007 9.55957 3.93279 9.44229L3.12498 8.6337V9.0001C3.1235 10.6831 3.74205 12.3076 4.86248 13.5634C5.55954 12.5533 6.53968 11.7718 7.67967 11.3173C7.06731 10.835 6.62047 10.1738 6.40129 9.4258C6.1821 8.67777 6.20147 7.88002 6.45669 7.1435C6.71191 6.40698 7.19031 5.76829 7.82534 5.31627C8.46038 4.86424 9.22049 4.62133 9.99998 4.62133C10.7795 4.62133 11.5396 4.86424 12.1746 5.31627C12.8097 5.76829 13.2881 6.40698 13.5433 7.1435C13.7985 7.88002 13.8179 8.67777 13.5987 9.4258C13.3795 10.1738 12.9327 10.835 12.3203 11.3173C13.4613 11.7719 14.4422 12.5543 15.139 13.5657C15.2971 13.3883 15.446 13.2029 15.5851 13.0103C15.6819 12.8756 15.8282 12.7849 15.9919 12.758C16.1555 12.7312 16.3231 12.7705 16.4578 12.8673C16.5925 12.9641 16.6832 13.1104 16.71 13.274C16.7368 13.4377 16.6975 13.6053 16.6008 13.7399L16.6 13.7392ZM9.99998 10.8751C10.4944 10.8751 10.9778 10.7285 11.3889 10.4538C11.8 10.1791 12.1205 9.78863 12.3097 9.33181C12.4989 8.875 12.5484 8.37233 12.4519 7.88738C12.3555 7.40242 12.1174 6.95697 11.7677 6.60734C11.4181 6.2577 10.9727 6.0196 10.4877 5.92314C10.0028 5.82668 9.50009 5.87618 9.04327 6.0654C8.58646 6.25462 8.19601 6.57505 7.92131 6.98618C7.6466 7.3973 7.49998 7.88065 7.49998 8.3751C7.49998 9.03814 7.76337 9.67403 8.23221 10.1429C8.70106 10.6117 9.33694 10.8751 9.99998 10.8751ZM9.99998 15.8751C11.5253 15.8731 13.0069 15.3651 14.2125 14.4306C13.7603 13.7234 13.1375 13.1415 12.4013 12.7384C11.6651 12.3353 10.8393 12.1241 9.99998 12.1241C9.16067 12.1241 8.33485 12.3353 7.59867 12.7384C6.86249 13.1415 6.23962 13.7234 5.78748 14.4306C6.99125 15.3684 8.47401 15.8769 9.99998 15.8751Z" fill="#38343D"/>
</svg>
