<svg width="18" height="18" viewBox="0 0 18 18" fill="none" xmlns="http://www.w3.org/2000/svg">
<path d="M9.9375 13.0626C9.9375 13.248 9.88252 13.4293 9.77951 13.5835C9.67649 13.7376 9.53007 13.8578 9.35877 13.9288C9.18746 13.9997 8.99896 14.0183 8.81711 13.9821C8.63525 13.9459 8.4682 13.8566 8.33709 13.7255C8.20598 13.5944 8.11669 13.4274 8.08052 13.2455C8.04434 13.0637 8.06291 12.8752 8.13387 12.7039C8.20482 12.5326 8.32499 12.3861 8.47916 12.2831C8.63333 12.1801 8.81458 12.1251 9 12.1251C9.24864 12.1251 9.4871 12.2239 9.66292 12.3997C9.83873 12.5755 9.9375 12.814 9.9375 13.0626ZM9 4.62512C7.27657 4.62512 5.875 5.88684 5.875 7.43762V7.75012C5.875 7.91588 5.94085 8.07485 6.05806 8.19206C6.17527 8.30927 6.33424 8.37512 6.5 8.37512C6.66576 8.37512 6.82473 8.30927 6.94195 8.19206C7.05916 8.07485 7.125 7.91588 7.125 7.75012V7.43762C7.125 6.57825 7.96641 5.87512 9 5.87512C10.0336 5.87512 10.875 6.57825 10.875 7.43762C10.875 8.297 10.0336 9.00012 9 9.00012C8.83424 9.00012 8.67527 9.06597 8.55806 9.18318C8.44085 9.30039 8.375 9.45936 8.375 9.62512V10.2501C8.375 10.4159 8.44085 10.5749 8.55806 10.6921C8.67527 10.8093 8.83424 10.8751 9 10.8751C9.16576 10.8751 9.32474 10.8093 9.44195 10.6921C9.55916 10.5749 9.625 10.4159 9.625 10.2501V10.1939C11.05 9.93215 12.125 8.79543 12.125 7.43762C12.125 5.88684 10.7234 4.62512 9 4.62512ZM17.125 9.00012C17.125 10.6071 16.6485 12.178 15.7557 13.5141C14.8629 14.8503 13.594 15.8917 12.1093 16.5066C10.6247 17.1216 8.99099 17.2825 7.41489 16.969C5.8388 16.6555 4.39106 15.8817 3.25476 14.7454C2.11846 13.6091 1.34463 12.1613 1.03112 10.5852C0.717618 9.00914 0.87852 7.37547 1.49348 5.89082C2.10844 4.40617 3.14985 3.13722 4.486 2.24443C5.82214 1.35165 7.39303 0.875122 9 0.875122C11.1542 0.877397 13.2195 1.73415 14.7427 3.25739C16.266 4.78063 17.1227 6.84594 17.125 9.00012ZM15.875 9.00012C15.875 7.64038 15.4718 6.31116 14.7164 5.18058C13.9609 4.04999 12.8872 3.1688 11.631 2.64845C10.3747 2.1281 8.99238 1.99195 7.65876 2.25722C6.32514 2.5225 5.10013 3.17728 4.13864 4.13876C3.17716 5.10025 2.52238 6.32526 2.2571 7.65888C1.99183 8.9925 2.12798 10.3748 2.64833 11.6311C3.16868 12.8873 4.04987 13.961 5.18046 14.7165C6.31105 15.4719 7.64026 15.8751 9 15.8751C10.8227 15.8731 12.5702 15.1481 13.8591 13.8592C15.1479 12.5703 15.8729 10.8229 15.875 9.00012Z" fill="#38343D"/>
</svg>
