<svg width="18" height="18" viewBox="0 0 18 18" fill="none" xmlns="http://www.w3.org/2000/svg">
<path d="M11.5 0.25C10.5135 0.250885 9.54124 0.48506 8.66254 0.933406C7.78384 1.38175 7.02363 2.03156 6.44398 2.82977C5.86433 3.62798 5.48167 4.55196 5.32725 5.52627C5.17284 6.50059 5.25104 7.49761 5.55547 8.43594L1.05781 12.9328C0.999791 12.9909 0.953782 13.0598 0.922415 13.1357C0.891047 13.2116 0.874936 13.2929 0.875 13.375V16.5C0.875 16.6658 0.940848 16.8247 1.05806 16.9419C1.17527 17.0592 1.33424 17.125 1.5 17.125H4.625C4.79076 17.125 4.94973 17.0592 5.06694 16.9419C5.18415 16.8247 5.25 16.6658 5.25 16.5V15.25H6.5C6.66576 15.25 6.82473 15.1842 6.94194 15.0669C7.05915 14.9497 7.125 14.7908 7.125 14.625V13.375H8.375C8.4571 13.3751 8.53841 13.359 8.61428 13.3276C8.69015 13.2962 8.7591 13.2502 8.81719 13.1922L9.56406 12.4445C10.4231 12.7234 11.3323 12.8128 12.2292 12.7066C13.1261 12.6004 13.9893 12.3011 14.7593 11.8292C15.5294 11.3574 16.1881 10.7243 16.69 9.97343C17.192 9.2226 17.5252 8.37191 17.6668 7.47994C17.8084 6.58797 17.755 5.6759 17.5103 4.80655C17.2656 3.93719 16.8354 3.13119 16.2493 2.44405C15.6632 1.75691 14.9351 1.20496 14.1153 0.826195C13.2954 0.447431 12.4031 0.250854 11.5 0.25ZM11.5 11.5C10.8673 11.5011 10.2402 11.3815 9.65234 11.1477C9.53734 11.0977 9.40999 11.0836 9.28683 11.107C9.16367 11.1304 9.05039 11.1903 8.96172 11.2789L8.11641 12.125H6.5C6.33424 12.125 6.17527 12.1908 6.05806 12.3081C5.94085 12.4253 5.875 12.5842 5.875 12.75V14H4.625C4.45924 14 4.30027 14.0658 4.18306 14.1831C4.06585 14.3003 4 14.4592 4 14.625V15.875H2.125V13.6336L6.72109 9.03828C6.80971 8.94961 6.86961 8.83633 6.89302 8.71317C6.91643 8.59001 6.90225 8.46266 6.85234 8.34766C6.4571 7.35379 6.39098 6.25937 6.66369 5.22514C6.9364 4.19092 7.53357 3.2714 8.36749 2.60164C9.20141 1.93189 10.2281 1.54719 11.2968 1.50407C12.3655 1.46094 13.4199 1.76165 14.3051 2.36203C15.1902 2.96242 15.8596 3.83082 16.2147 4.83971C16.5699 5.8486 16.5922 6.94479 16.2783 7.96727C15.9644 8.98976 15.3309 9.88465 14.4709 10.5205C13.6109 11.1564 12.5696 11.4997 11.5 11.5ZM14 4.9375C14 5.12292 13.945 5.30418 13.842 5.45835C13.739 5.61252 13.5926 5.73268 13.4213 5.80364C13.25 5.87459 13.0615 5.89316 12.8796 5.85699C12.6977 5.82081 12.5307 5.73152 12.3996 5.60041C12.2685 5.4693 12.1792 5.30225 12.143 5.1204C12.1068 4.93854 12.1254 4.75004 12.1964 4.57873C12.2673 4.40743 12.3875 4.26101 12.5417 4.158C12.6958 4.05498 12.8771 4 13.0625 4C13.3111 4 13.5496 4.09877 13.7254 4.27459C13.9012 4.4504 14 4.68886 14 4.9375Z" fill="#38343D"/>
</svg>
