<svg width="19" height="14" viewBox="0 0 19 14" fill="none" xmlns="http://www.w3.org/2000/svg">
<path d="M16.5 2.62512H15.25V2.00012C15.25 1.50284 15.0525 1.02593 14.7008 0.674297C14.3492 0.322666 13.8723 0.125122 13.375 0.125122H2.125C1.62772 0.125122 1.15081 0.322666 0.799175 0.674297C0.447544 1.02593 0.25 1.50284 0.25 2.00012V9.50012C0.25 9.9974 0.447544 10.4743 0.799175 10.8259C1.15081 11.1776 1.62772 11.3751 2.125 11.3751H10.875V12.0001C10.875 12.4974 11.0725 12.9743 11.4242 13.3259C11.7758 13.6776 12.2527 13.8751 12.75 13.8751H16.5C16.9973 13.8751 17.4742 13.6776 17.8258 13.3259C18.1775 12.9743 18.375 12.4974 18.375 12.0001V4.50012C18.375 4.00284 18.1775 3.52593 17.8258 3.1743C17.4742 2.82267 16.9973 2.62512 16.5 2.62512ZM2.125 10.1251C1.95924 10.1251 1.80027 10.0593 1.68306 9.94206C1.56585 9.82485 1.5 9.66588 1.5 9.50012V2.00012C1.5 1.83436 1.56585 1.67539 1.68306 1.55818C1.80027 1.44097 1.95924 1.37512 2.125 1.37512H13.375C13.5408 1.37512 13.6997 1.44097 13.8169 1.55818C13.9342 1.67539 14 1.83436 14 2.00012V2.62512H12.75C12.2527 2.62512 11.7758 2.82267 11.4242 3.1743C11.0725 3.52593 10.875 4.00284 10.875 4.50012V10.1251H2.125ZM17.125 12.0001C17.125 12.1659 17.0592 12.3249 16.9419 12.4421C16.8247 12.5593 16.6658 12.6251 16.5 12.6251H12.75C12.5842 12.6251 12.4253 12.5593 12.3081 12.4421C12.1908 12.3249 12.125 12.1659 12.125 12.0001V4.50012C12.125 4.33436 12.1908 4.17539 12.3081 4.05818C12.4253 3.94097 12.5842 3.87512 12.75 3.87512H16.5C16.6658 3.87512 16.8247 3.94097 16.9419 4.05818C17.0592 4.17539 17.125 4.33436 17.125 4.50012V12.0001ZM9.625 13.2501C9.625 13.4159 9.55915 13.5749 9.44194 13.6921C9.32473 13.8093 9.16576 13.8751 9 13.8751H5.875C5.70924 13.8751 5.55027 13.8093 5.43306 13.6921C5.31585 13.5749 5.25 13.4159 5.25 13.2501C5.25 13.0844 5.31585 12.9254 5.43306 12.8082C5.55027 12.691 5.70924 12.6251 5.875 12.6251H9C9.16576 12.6251 9.32473 12.691 9.44194 12.8082C9.55915 12.9254 9.625 13.0844 9.625 13.2501ZM15.875 5.75012C15.875 5.91588 15.8092 6.07485 15.6919 6.19206C15.5747 6.30927 15.4158 6.37512 15.25 6.37512H14C13.8342 6.37512 13.6753 6.30927 13.5581 6.19206C13.4408 6.07485 13.375 5.91588 13.375 5.75012C13.375 5.58436 13.4408 5.42539 13.5581 5.30818C13.6753 5.19097 13.8342 5.12512 14 5.12512H15.25C15.4158 5.12512 15.5747 5.19097 15.6919 5.30818C15.8092 5.42539 15.875 5.58436 15.875 5.75012Z" fill="#38343D"/>
</svg>
