<svg width="16" height="18" viewBox="0 0 16 18" fill="none" xmlns="http://www.w3.org/2000/svg">
<path d="M15.3281 12.7454C14.8945 11.9985 14.2499 9.88522 14.2499 7.12506C14.2499 5.46746 13.5915 3.87775 12.4194 2.70564C11.2473 1.53354 9.65755 0.875061 7.99995 0.875061C6.34235 0.875061 4.75263 1.53354 3.58053 2.70564C2.40843 3.87775 1.74995 5.46746 1.74995 7.12506C1.74995 9.886 1.10464 11.9985 0.671043 12.7454C0.560317 12.9353 0.501616 13.151 0.500862 13.3708C0.500107 13.5906 0.557325 13.8067 0.666745 13.9973C0.776165 14.188 0.933917 14.3464 1.12409 14.4566C1.31427 14.5668 1.53015 14.6249 1.74995 14.6251H4.93823C5.08243 15.3307 5.46591 15.9648 6.0238 16.4202C6.5817 16.8756 7.27977 17.1244 7.99995 17.1244C8.72012 17.1244 9.4182 16.8756 9.97609 16.4202C10.534 15.9648 10.9175 15.3307 11.0617 14.6251H14.2499C14.4697 14.6248 14.6855 14.5665 14.8755 14.4563C15.0656 14.346 15.2232 14.1876 15.3326 13.997C15.4419 13.8064 15.499 13.5903 15.4983 13.3706C15.4975 13.1508 15.4388 12.9352 15.3281 12.7454ZM7.99995 15.8751C7.61231 15.8749 7.23423 15.7547 6.91776 15.5308C6.60129 15.307 6.36197 14.9905 6.23276 14.6251H9.76714C9.63792 14.9905 9.39861 15.307 9.08214 15.5308C8.76567 15.7547 8.38759 15.8749 7.99995 15.8751ZM1.74995 13.3751C2.35151 12.3407 2.99995 9.94381 2.99995 7.12506C2.99995 5.79898 3.52673 4.52721 4.46441 3.58953C5.4021 2.65185 6.67387 2.12506 7.99995 2.12506C9.32603 2.12506 10.5978 2.65185 11.5355 3.58953C12.4732 4.52721 12.9999 5.79898 12.9999 7.12506C12.9999 9.94147 13.6468 12.3383 14.2499 13.3751H1.74995Z" fill="#38343D"/>
</svg>
