<svg width="18" height="18" viewBox="0 0 18 18" fill="none" xmlns="http://www.w3.org/2000/svg">
<path d="M9 0.875031C7.39303 0.875031 5.82214 1.35155 4.486 2.24434C3.14985 3.13713 2.10844 4.40608 1.49348 5.89073C0.87852 7.37538 0.717618 9.00904 1.03112 10.5851C1.34463 12.1612 2.11846 13.609 3.25476 14.7453C4.39106 15.8816 5.8388 16.6554 7.41489 16.9689C8.99099 17.2824 10.6247 17.1215 12.1093 16.5066C13.594 15.8916 14.8629 14.8502 15.7557 13.514C16.6485 12.1779 17.125 10.607 17.125 9.00003C17.1227 6.84584 16.266 4.78054 14.7427 3.2573C13.2195 1.73406 11.1542 0.877305 9 0.875031ZM4.7875 14.4297C5.23964 13.7226 5.86251 13.1407 6.59869 12.7376C7.33488 12.3345 8.16069 12.1232 9 12.1232C9.83932 12.1232 10.6651 12.3345 11.4013 12.7376C12.1375 13.1407 12.7604 13.7226 13.2125 14.4297C12.0081 15.3664 10.5258 15.875 9 15.875C7.4742 15.875 5.99193 15.3664 4.7875 14.4297ZM6.5 8.37503C6.5 7.88058 6.64663 7.39723 6.92133 6.98611C7.19603 6.57498 7.58648 6.25455 8.04329 6.06533C8.50011 5.87611 9.00278 5.8266 9.48773 5.92307C9.97268 6.01953 10.4181 6.25763 10.7678 6.60726C11.1174 6.95689 11.3555 7.40235 11.452 7.8873C11.5484 8.37226 11.4989 8.87492 11.3097 9.33174C11.1205 9.78855 10.8001 10.179 10.3889 10.4537C9.97781 10.7284 9.49446 10.875 9 10.875C8.33696 10.875 7.70108 10.6116 7.23224 10.1428C6.7634 9.67396 6.5 9.03807 6.5 8.37503ZM14.1375 13.5633C13.4404 12.5532 12.4603 11.7718 11.3203 11.3172C11.9327 10.8349 12.3795 10.1738 12.5987 9.42573C12.8179 8.67769 12.7985 7.87995 12.5433 7.14343C12.2881 6.40691 11.8097 5.76822 11.1746 5.31619C10.5396 4.86417 9.77949 4.62126 9 4.62126C8.22052 4.62126 7.4604 4.86417 6.82536 5.31619C6.19033 5.76822 5.71193 6.40691 5.45671 7.14343C5.20149 7.87995 5.18212 8.67769 5.40131 9.42573C5.62049 10.1738 6.06734 10.8349 6.67969 11.3172C5.5397 11.7718 4.55956 12.5532 3.8625 13.5633C2.9817 12.5728 2.406 11.3488 2.20473 10.0387C2.00346 8.72859 2.1852 7.38823 2.72806 6.17901C3.27093 4.9698 4.15178 3.94329 5.26454 3.22311C6.3773 2.50292 7.67452 2.11975 9 2.11975C10.3255 2.11975 11.6227 2.50292 12.7355 3.22311C13.8482 3.94329 14.7291 4.9698 15.2719 6.17901C15.8148 7.38823 15.9966 8.72859 15.7953 10.0387C15.594 11.3488 15.0183 12.5728 14.1375 13.5633Z" fill="#38343D"/>
</svg>
